<?xml version="1.0" encoding="utf-8"?>
<!-- Generator: Adobe Illustrator 23.0.1, SVG Export Plug-In . SVG Version: 6.00 Build 0)  -->
<svg version="1.1" id="Layer_1" xmlns="http://www.w3.org/2000/svg" xmlns:xlink="http://www.w3.org/1999/xlink" x="0px" y="0px"
	 viewBox="0 0 72 22.03" style="enable-background:new 0 0 72 22.03;" xml:space="preserve">
<style type="text/css">
	.st0{fill:#FFFFFF;}
	.st1{fill:#FB7513;}
	.st2{fill:#100894;}
</style>
<g>
	<path class="st0" d="M0.02,1.83h3.14v15.35h7.8v2.99H0.02V1.83z"/>
	<path class="st0" d="M28.52,11c0,5.42-3.93,9.48-9.27,9.48c-5.34,0-9.27-4.06-9.27-9.48s3.93-9.48,9.27-9.48
		C24.59,1.51,28.52,5.57,28.52,11z M25.32,11c0-3.54-2.38-6.5-6.08-6.5c-3.69,0-6.08,2.96-6.08,6.5s2.38,6.5,6.08,6.5
		C22.94,17.49,25.32,14.53,25.32,11z"/>
	<path class="st0" d="M32.92,10.05l6.55-8.22h3.93l-7.18,9.01l8.07,9.32h-4.16l-7.2-8.28v8.28h-3.14V1.83h3.14V10.05z"/>
</g>
<g>
	<g>
		<path class="st0" d="M59.43,1.83h6.02c3.64,0,6.08,2.36,6.08,5.71c0,2.75-1.47,4.84-4.09,5.5l4.58,7.12h-3.67l-4.35-6.91h-1.44
			v6.91h-3.14V1.83z M68.33,7.54c0-1.81-1.26-2.72-3.27-2.72h-2.49v5.45h2.49C67.08,10.26,68.33,9.35,68.33,7.54z"/>
	</g>
</g>
<path class="st0" d="M55.18,10.26c1.31-1.06,2.09-2.69,2.09-4.42c0-2.87-2.3-5.85-6.14-5.85S45,2.97,45,5.84
	c0,1.72,0.79,3.35,2.1,4.42c-1.74,1.17-2.79,3.12-2.79,5.28c0,3.68,2.94,6.46,6.83,6.46s6.83-2.78,6.83-6.46
	C57.97,13.38,56.92,11.43,55.18,10.26z"/>
<path class="st1" d="M46.39,15.54c0,2.58,1.91,4.46,4.75,4.46s4.75-1.88,4.75-4.46c0-2.58-1.91-4.43-4.75-4.43
	S46.39,12.96,46.39,15.54z"/>
<path class="st2" d="M55.19,5.84c0-2.46-1.85-3.85-4.05-3.85s-4.05,1.39-4.05,3.85c0,2.46,1.85,3.91,4.05,3.91S55.19,8.3,55.19,5.84
	z"/>
</svg>
